<svg width="122" height="44" viewBox="0 0 122 44" fill="none" xmlns="http://www.w3.org/2000/svg">
<path d="M114.432 2.89774L100.464 16.8592L104.14 20.5254L118.108 6.56394L114.432 2.89774Z" fill="white"/>
<path d="M94.3456 0H89.1711V14.9655H94.3456V0Z" fill="white"/>
<path d="M122 26.316H106.697V31.4896H122V26.316Z" fill="white"/>
<path d="M95.5644 36.3286C94.3385 37.6096 92.8417 38.2145 91.0599 38.2145C89.335 38.2145 87.8312 37.6096 86.6124 36.3286C85.3865 35.0477 84.7165 33.5462 84.7165 31.824C84.7165 29.988 85.3865 28.4865 86.6124 27.2625C87.8312 25.9816 89.335 25.3696 91.0599 25.4265C92.8417 25.3696 94.3385 25.9816 95.6214 27.2625C96.7903 28.4865 97.4033 29.988 97.4603 31.824C97.4033 33.5462 96.7903 35.0477 95.5644 36.3286ZM99.627 23.1991C97.2393 20.808 94.3456 19.6338 91.0599 19.6338C87.7813 19.6338 84.9374 20.808 82.6068 23.1991C80.212 25.5902 79.0431 28.4794 79.0431 31.8169C79.0431 35.1545 80.2048 38.0437 82.6068 40.3849C84.9374 42.7831 87.7813 44 91.0599 44C94.3385 44 97.2322 42.7831 99.627 40.3849C101.965 38.0508 103.134 35.1545 103.134 31.8169C103.134 28.4865 101.965 25.5973 99.627 23.1991Z" fill="white"/>
<path d="M14.9034 13.6917C10.7339 13.6348 7.28422 15.0794 4.39049 18.0825C1.43974 21.0357 0 24.537 0 28.7071C0 32.8203 1.44687 36.4425 4.39049 39.3886C7.27709 42.2779 10.7339 43.7296 14.9034 43.7296C18.2462 43.7296 21.3039 42.7262 23.9695 40.6696C26.5853 38.556 28.3101 35.9444 29.201 32.7207H23.1356C22.3587 34.2792 21.2468 35.553 19.8499 36.5564C18.289 37.5028 16.6782 38.0081 14.8963 38.0081C12.3376 38.0081 10.1708 37.0616 8.38897 35.2825C6.55722 33.4465 5.6663 31.2832 5.71619 28.7213C5.65917 26.1666 6.55722 23.9961 8.38897 22.1601C10.1708 20.381 12.3376 19.4346 14.8963 19.4346C16.6782 19.4346 18.289 19.9327 19.8499 20.9361C21.2397 21.8826 22.3516 23.2133 23.1356 24.7718H29.201C28.3101 21.5481 26.5853 18.8724 23.9695 16.8229C21.3039 14.688 18.2462 13.6348 14.9034 13.6917Z" fill="white"/>
<path d="M54.0686 32.6566L55.1805 32.0517V34.3859C55.1805 36.3856 54.6245 37.7732 53.5697 38.556C52.4578 39.3317 51.2889 39.7231 49.9489 39.7231C49.115 39.7231 48.445 39.5025 47.8891 39.0613C47.3332 38.556 47.0552 37.8373 47.0552 36.777C47.0552 35.6099 47.5042 34.7702 48.445 34.1582C49.001 33.8237 49.9489 33.5462 51.1748 33.3825L54.0686 32.6566ZM51.6239 19.584C47.7323 19.5271 45.0025 20.5874 43.4487 22.644C42.4509 23.9178 41.952 25.5973 41.7809 27.7037H47.5684C47.6753 26.7074 48.0174 26.0314 48.4023 25.5902C49.0152 24.8074 50.0131 24.416 51.4599 24.4729C52.6859 24.416 53.6267 24.6366 54.2967 25.028C54.9595 25.3624 55.2446 26.0314 55.2945 26.9778C55.2945 27.7535 54.8455 28.3726 53.9617 28.7569L49.507 29.4756C47.4472 29.7603 45.7865 30.2513 44.5036 30.9843C42.3368 32.2652 41.282 34.3218 41.339 37.2751C41.282 39.3246 41.952 40.9969 43.2848 42.2209C44.4537 43.2243 46.0645 43.7794 48.0174 43.8363C51.1891 43.7794 53.6837 42.9966 55.4655 41.4381V43.8363H61.253V26.8142C61.253 24.0317 60.2409 22.0889 58.3593 21.0855C56.3493 20.0323 54.1256 19.5271 51.6239 19.584Z" fill="white"/>
<path d="M37.9392 13.6917H32.1518V43.8363H37.9392V13.6917Z" fill="white"/>
<path d="M74.7595 20.4237C73.2057 21.0357 71.8159 22.0961 70.6398 23.7044V20.7582L65.1303 20.7084V43.8363H70.8608V32.7705C70.8608 30.8776 71.0817 29.5468 71.5878 28.7071C71.9727 27.8247 72.6997 27.0988 73.5906 26.4868C74.5884 25.8179 75.6433 25.4834 76.7623 25.4834L78.537 25.5973L78.4871 19.6979L76.9832 19.8117L74.7595 20.4237Z" fill="white"/>
</svg>
